<?xml version="1.0" encoding="UTF-8"?>
<svg id="MARCHIO" xmlns="http://www.w3.org/2000/svg" viewBox="0 0 100 100">
  <g>
    <path class="cls-1" d="M61.31,44.07l-.48-.28-2.39-1.4s-.03-.01-.05-.02h-.02s-.02,0-.02,0c-.01,0-.02.01-.03.01l-8.3,4.81-8.37-4.85-3.03,1.76v3.45h0s.03.06.06.08l8.24,4.77s.06.06.06.11v9.54l3.01,1.78,3.01-1.78v-.02h.02v-9.55s.02-.08.06-.11l8.24-4.77s.02-.01.02-.02h.01s.02-.06.02-.09v-3.33s-.01-.07-.01-.07l-.06-.03Z"/>
    <path class="cls-1" d="M48.5,8.6l-12.87,7.45,6.02,3.47,8.36-4.84,8.35,4.84,6.01-3.48-12.85-7.44c-.93-.54-2.08-.54-3.02,0Z"/>
    <path class="cls-1" d="M87.1,30.74c0-.06-.01-.13-.02-.19,0-.08-.02-.16-.04-.25-.01-.05-.02-.1-.04-.14-.01-.04-.02-.07-.03-.1-.01-.05-.03-.09-.05-.14-.01-.05-.03-.09-.05-.14-.04-.09-.08-.18-.13-.26-.05-.08-.09-.17-.15-.25s-.11-.16-.17-.23c0,0,0,0,0,0-.06-.07-.13-.15-.19-.21-.18-.19-.39-.35-.63-.48,0,0,0,0,0,0-.01,0-.03-.02-.05-.02l-9.81-5.68-6.02,3.47,8.36,4.84-8.36,4.84h0s3,1.74,3,1.74v3.49s.02,0,.02,0l8.34-4.83v9.64l6.02-3.49v-11.38c0-.07,0-.13,0-.2Z"/>
    <path class="cls-1" d="M24.28,22.63l-9.86,5.71c-.4.23-.74.55-.99.93,0,0,0,0,0,.01-.34.49-.53,1.08-.53,1.7v11.37l6.02,3.5v-9.64l8.35,4.84v-.05h0s0-3.44,0-3.44l2.99-1.74-.03-.02.04-.02-1.01-.59-7.33-4.24,8.35-4.84-6.01-3.48Z"/>
    <path class="cls-1" d="M81.08,68.49l-8.36,4.84v3.55s2.95,1.7,2.95,1.7l9.93-5.75c.93-.54,1.5-1.53,1.5-2.61v-14.73l-6.02,3.48v9.52Z"/>
    <path class="cls-1" d="M18.92,68.53v-9.52l-6.02-3.48v14.73c0,1.08.57,2.07,1.5,2.61l9.93,5.75,2.96-1.7v-3.55s-8.36-4.84-8.36-4.84Z"/>
    <path class="cls-1" d="M64.18,85.03l-2.74-1.58s-.06-.06-.06-.1v-3.24c0-.09-.1-.15-.18-.1l-8,4.63c-.08.05-.18-.01-.18-.11v-9.4l-3.01,1.75-3.01-1.73v.03h-.02s0,9.39,0,9.39c0,.09-.1.15-.18.11l-8-4.64c-.08-.05-.18.01-.18.11v3.24s-.02.08-.06.11l-2.74,1.58c-.08.05-.08.16,0,.21l12.66,7.33c.47.27.99.41,1.51.41.63,0,1.25-.2,1.78-.59h0s12.4-7.18,12.4-7.18c.08-.05.08-.16,0-.21Z"/>
  </g>
  <path class="cls-1" d="M108.6,47.49c-2.56,0-4.6-.56-6.12-1.68-1.52-1.12-2.36-2.68-2.5-4.68h4.1c.14,1.04.61,1.82,1.4,2.34.79.53,1.89.79,3.29.79,1.24,0,2.17-.2,2.8-.6.63-.4.94-.99.94-1.78,0-.61-.2-1.1-.6-1.46-.4-.36-1.05-.64-1.94-.82l-3.93-.8c-1.77-.38-3.1-1-3.98-1.87-.88-.87-1.32-2.01-1.32-3.4,0-1.77.67-3.16,2.01-4.17,1.34-1,3.17-1.51,5.48-1.51s4.22.53,5.65,1.58c1.43,1.05,2.23,2.52,2.4,4.4h-4.1c-.46-1.92-1.85-2.87-4.17-2.87-1.05,0-1.88.19-2.47.57-.6.38-.9.92-.9,1.63,0,1.08.78,1.78,2.33,2.1l4.1.85c1.85.38,3.21,1.01,4.06,1.9.86.89,1.28,2.08,1.28,3.59,0,1.87-.68,3.32-2.04,4.36-1.36,1.04-3.29,1.55-5.78,1.55Z"/>
</svg>