<?xml version="1.0" encoding="UTF-8"?>
<svg id="MARCHIO" xmlns="http://www.w3.org/2000/svg" viewBox="0 0 100 100">
  <defs>
    <style>
      .cls-1 {
        fill: #8d8d8e;
      }
    </style>
  </defs>
  <path class="cls-1" d="M8.6,47.49c-2.56,0-4.6-.56-6.12-1.68C.96,44.68.12,43.12-.02,41.13h4.1c.14,1.04.61,1.82,1.4,2.34.79.53,1.89.79,3.29.79,1.24,0,2.17-.2,2.8-.6.63-.4.94-.99.94-1.78,0-.61-.2-1.1-.6-1.46-.4-.36-1.05-.64-1.94-.82l-3.93-.8c-1.77-.38-3.1-1-3.98-1.87-.88-.87-1.32-2.01-1.32-3.4,0-1.77.67-3.16,2.01-4.17,1.34-1,3.17-1.51,5.48-1.51s4.22.53,5.65,1.58c1.43,1.05,2.23,2.52,2.4,4.4h-4.1c-.46-1.92-1.85-2.87-4.17-2.87-1.05,0-1.88.19-2.47.57-.6.38-.9.92-.9,1.63,0,1.08.78,1.78,2.33,2.1l4.1.85c1.85.38,3.21,1.01,4.06,1.9.86.89,1.28,2.08,1.28,3.59,0,1.87-.68,3.32-2.04,4.36-1.36,1.04-3.29,1.55-5.78,1.55Z"/>
  <path class="cls-1" d="M19.34,47.2v-19.08h9.07c2.15,0,3.82.54,5.02,1.63,1.19,1.08,1.79,2.57,1.79,4.45s-.6,3.35-1.79,4.44c-1.19,1.09-2.87,1.64-5.02,1.64h-5.09v6.92h-3.98ZM23.32,36.82h4.85c.99,0,1.74-.23,2.26-.69.52-.46.78-1.1.78-1.92s-.26-1.48-.78-1.93c-.52-.46-1.27-.68-2.26-.68h-4.85v5.23Z"/>
  <path class="cls-1" d="M34.11,47.2l8.08-19.08h4.1l7.99,19.08h-4.1l-1.95-4.66h-8.15l-2,4.66h-3.96ZM41.32,39.19h5.82l-2.85-6.88h-.12l-2.85,6.88Z"/>
  <path class="cls-1" d="M55.08,47.2v-2.69l9.99-12.91h-9.56v-3.49h14.75v2.69l-9.96,12.91h10.25v3.49h-15.45Z"/>
  <path class="cls-1" d="M73.31,47.2v-19.08h4v19.08h-4Z"/>
  <path class="cls-1" d="M90.27,47.49c-1.96,0-3.67-.4-5.12-1.21-1.45-.81-2.59-1.95-3.4-3.42-.82-1.47-1.22-3.2-1.22-5.19s.41-3.75,1.22-5.22c.82-1.47,1.95-2.6,3.4-3.4,1.45-.8,3.16-1.2,5.12-1.2s3.69.4,5.15,1.19c1.45.79,2.58,1.92,3.39,3.39.81,1.47,1.21,3.22,1.21,5.24s-.41,3.73-1.22,5.21c-.82,1.48-1.95,2.61-3.4,3.42-1.45.8-3.16,1.2-5.12,1.2ZM90.27,44c1.82,0,3.23-.57,4.24-1.72,1-1.15,1.51-2.69,1.51-4.62s-.5-3.49-1.5-4.63c-1-1.14-2.41-1.71-4.25-1.71s-3.24.57-4.24,1.71c-1.01,1.14-1.51,2.68-1.51,4.63s.5,3.47,1.51,4.62c1,1.15,2.42,1.72,4.24,1.72Z"/>
  <path class="cls-1" d="M1.07,72.16v-19.08h3.98v15.59h9.82v3.49H1.07Z"/>
  <path class="cls-1" d="M17.53,72.16v-19.08h4v19.08h-4Z"/>
  <path class="cls-1" d="M25.66,72.16v-19.08h5.44l5.65,13.45h.09l5.63-13.45h5.42v19.08h-3.98v-13.47h-.09l-5.46,13.47h-3.42l-5.44-13.47h-.09v13.47h-3.75Z"/>
  <path class="cls-1" d="M52.01,72.16v-19.08h4v19.08h-4Z"/>
  <path class="cls-1" d="M78.23,72.16h-4.26l-9.92-13.24h-.09v13.24h-3.82v-19.08h4.12l10.06,13.52h.09v-13.52h3.82v19.08Z"/>
  <path class="cls-1" d="M96.15,72.16h-13.92v-19.08h13.92v3.49h-9.94v4h9.16v3.39h-9.16v4.71h9.94v3.49Z"/>
</svg>