<?xml version="1.0" encoding="UTF-8"?>
<svg id="MARCHIO" xmlns="http://www.w3.org/2000/svg" viewBox="0 0 100 50">
  <defs>
    <style>
      .cls-1 {
        fill: #8d8d8e;
      }
    </style>
  </defs>
  <path class="cls-1" d="M17.48,23.02c-2.01,0-3.61-.44-4.81-1.32-1.2-.88-1.85-2.11-1.96-3.67h3.22c.11.81.48,1.43,1.1,1.84.62.41,1.48.62,2.58.62.97,0,1.71-.16,2.2-.47.49-.31.74-.78.74-1.4,0-.48-.16-.86-.47-1.15-.31-.28-.82-.5-1.53-.65l-3.09-.63c-1.39-.3-2.44-.79-3.13-1.47s-1.04-1.58-1.04-2.67c0-1.39.53-2.49,1.58-3.28,1.06-.79,2.49-1.18,4.3-1.18s3.32.41,4.44,1.24c1.12.83,1.75,1.98,1.89,3.46h-3.22c-.36-1.5-1.45-2.26-3.28-2.26-.83,0-1.47.15-1.94.44-.47.3-.7.72-.7,1.28,0,.85.61,1.4,1.83,1.65l3.22.67c1.46.3,2.52.79,3.19,1.49.67.7,1.01,1.64,1.01,2.82,0,1.47-.53,2.61-1.6,3.42-1.07.81-2.58,1.22-4.54,1.22Z"/>
  <path class="cls-1" d="M25.92,22.8V7.81h7.12c1.69,0,3,.43,3.94,1.28s1.41,2.02,1.41,3.5-.47,2.63-1.41,3.49c-.94.86-2.25,1.29-3.94,1.29h-4v5.44h-3.13ZM29.04,14.64h3.81c.78,0,1.37-.18,1.78-.55.41-.36.61-.87.61-1.51s-.2-1.16-.61-1.52c-.41-.36-1-.54-1.78-.54h-3.81v4.11Z"/>
  <path class="cls-1" d="M37.52,22.8l6.35-14.99h3.22l6.27,14.99h-3.22l-1.54-3.66h-6.4l-1.57,3.66h-3.11ZM43.18,16.51h4.57l-2.24-5.4h-.09l-2.24,5.4Z"/>
  <path class="cls-1" d="M53.99,22.8v-2.11l7.85-10.14h-7.51v-2.74h11.58v2.11l-7.83,10.14h8.05v2.74h-12.14Z"/>
  <path class="cls-1" d="M68.31,22.8V7.81h3.15v14.99h-3.15Z"/>
  <path class="cls-1" d="M81.63,23.02c-1.54,0-2.88-.32-4.02-.95-1.14-.64-2.03-1.53-2.67-2.68-.64-1.15-.96-2.51-.96-4.08s.32-2.95.96-4.1c.64-1.15,1.53-2.04,2.67-2.67,1.14-.63,2.48-.94,4.02-.94s2.9.31,4.04.93c1.14.62,2.03,1.51,2.66,2.66.64,1.15.95,2.53.95,4.12s-.32,2.93-.96,4.09c-.64,1.16-1.53,2.05-2.67,2.68-1.14.63-2.48.94-4.02.94ZM81.63,20.29c1.43,0,2.54-.45,3.33-1.35.79-.9,1.18-2.11,1.18-3.63s-.39-2.74-1.18-3.64c-.78-.89-1.9-1.34-3.34-1.34s-2.54.45-3.33,1.34c-.79.89-1.18,2.11-1.18,3.64s.39,2.73,1.18,3.63c.79.9,1.9,1.35,3.33,1.35Z"/>
  <path class="cls-1" d="M13.04,42.41v-14.99h3.13v12.25h7.72v2.74h-10.84Z"/>
  <path class="cls-1" d="M25.97,42.41v-14.99h3.15v14.99h-3.15Z"/>
  <path class="cls-1" d="M32.36,42.41v-14.99h4.27l4.44,10.57h.07l4.42-10.57h4.26v14.99h-3.13v-10.58h-.07l-4.29,10.58h-2.68l-4.27-10.58h-.07v10.58h-2.94Z"/>
  <path class="cls-1" d="M53.06,42.41v-14.99h3.15v14.99h-3.15Z"/>
  <path class="cls-1" d="M73.66,42.41h-3.35l-7.79-10.4h-.07v10.4h-3v-14.99h3.24l7.9,10.62h.07v-10.62h3v14.99Z"/>
  <path class="cls-1" d="M87.74,42.41h-10.94v-14.99h10.94v2.74h-7.81v3.15h7.2v2.66h-7.2v3.7h7.81v2.74Z"/>
</svg>